HIERARCHY
ROOT Hips
{
    OFFSET   0.000000   0.000000   0.000000
    CHANNELS 6 Xposition Yposition Zposition Zrotation Xrotation Yrotation
    JOINT Chest
    {
        OFFSET   0.000000   8.007230   0.000000
        CHANNELS 3 Zrotation Xrotation Yrotation
        JOINT Chest2
        {
            OFFSET   0.000000  22.077100   0.000000
            CHANNELS 3 Zrotation Xrotation Yrotation
            JOINT Neck
            {
                OFFSET   0.000000  23.254700   0.000000
                CHANNELS 3 Zrotation Xrotation Yrotation
                JOINT Head
                {
                    OFFSET   0.000010  14.370000   1.956610
                    CHANNELS 3 Zrotation Xrotation Yrotation
                    End Site
                    {
                        OFFSET   0.000000  19.566000   0.000000
                    }
                }
            }
            JOINT LeftCollar
            {
                OFFSET   3.911900  19.017000  -0.467063
                CHANNELS 3 Zrotation Xrotation Yrotation
                JOINT LeftShoulder
                {
                    OFFSET  10.383700   0.000000   0.000000
                    CHANNELS 3 Zrotation Xrotation Yrotation
                    JOINT LeftElbow
                    {
                        OFFSET  26.662100   0.001671   0.000522
                        CHANNELS 3 Zrotation Xrotation Yrotation
                        JOINT LeftWrist
                        {
                            OFFSET  28.869000   0.000037  -0.000114
                            CHANNELS 3 Zrotation Xrotation Yrotation
                            JOINT LeftFinger0
                            {
                                OFFSET   2.044650  -2.323450   3.252850
                                CHANNELS 3 Zrotation Xrotation Yrotation
                                JOINT LeftFinger01
                                {
                                    OFFSET   3.088140   0.000000   0.000000
                                    CHANNELS 3 Zrotation Xrotation Yrotation
                                    JOINT LeftFinger02
                                    {
                                        OFFSET   2.639460   0.000000   0.000000
                                        CHANNELS 3 Zrotation Xrotation Yrotation
                                        End Site
                                        {
                                            OFFSET   2.582190   0.000000   0.000000
                                        }
                                    }
                                }
                            }
                            JOINT LeftFinger1
                            {
                                OFFSET   8.364480   0.000000   3.252850
                                CHANNELS 3 Zrotation Xrotation Yrotation
                                JOINT LeftFinger11
                                {
                                    OFFSET   4.646930   0.000000   0.000000
                                    CHANNELS 3 Zrotation Xrotation Yrotation
                                    JOINT LeftFinger12
                                    {
                                        OFFSET   2.323470   0.000000   0.000000
                                        CHANNELS 3 Zrotation Xrotation Yrotation
                                        End Site
                                        {
                                            OFFSET   2.273050   0.000000   0.000000
                                        }
                                    }
                                }
                            }
                            JOINT LeftFinger2
                            {
                                OFFSET   8.364490   0.000016   1.078090
                                CHANNELS 3 Zrotation Xrotation Yrotation
                                JOINT LeftFinger21
                                {
                                    OFFSET   5.111620   0.000000   0.000000
                                    CHANNELS 3 Zrotation Xrotation Yrotation
                                    JOINT LeftFinger22
                                    {
                                        OFFSET   2.788150   0.000013   0.000000
                                        CHANNELS 3 Zrotation Xrotation Yrotation
                                        End Site
                                        {
                                            OFFSET   2.727660   0.000000   0.000000
                                        }
                                    }
                                }
                            }
                            JOINT LeftFinger3
                            {
                                OFFSET   7.899780   0.000016  -1.078090
                                CHANNELS 3 Zrotation Xrotation Yrotation
                                JOINT LeftFinger31
                                {
                                    OFFSET   4.646930   0.000000   0.000000
                                    CHANNELS 3 Zrotation Xrotation Yrotation
                                    JOINT LeftFinger32
                                    {
                                        OFFSET   2.323470   0.000000   0.000000
                                        CHANNELS 3 Zrotation Xrotation Yrotation
                                        End Site
                                        {
                                            OFFSET   2.273050   0.000000   0.000000
                                        }
                                    }
                                }
                            }
                            JOINT LeftFinger4
                            {
                                OFFSET   7.435080   0.000000  -3.252850
                                CHANNELS 3 Zrotation Xrotation Yrotation
                                JOINT LeftFinger41
                                {
                                    OFFSET   3.717550   0.000000   0.000000
                                    CHANNELS 3 Zrotation Xrotation Yrotation
                                    JOINT LeftFinger42
                                    {
                                        OFFSET   1.858760   0.000000   0.000000
                                        CHANNELS 3 Zrotation Xrotation Yrotation
                                        End Site
                                        {
                                            OFFSET   1.818440   0.000000   0.000000
                                        }
                                    }
                                }
                            }
                        }
                    }
                }
            }
            JOINT RightCollar
            {
                OFFSET  -3.911900  19.017000  -0.467064
                CHANNELS 3 Zrotation Xrotation Yrotation
                JOINT RightShoulder
                {
                    OFFSET -10.383700   0.000000   0.000000
                    CHANNELS 3 Zrotation Xrotation Yrotation
                    JOINT RightElbow
                    {
                        OFFSET -26.662100   0.001633   0.000260
                        CHANNELS 3 Zrotation Xrotation Yrotation
                        JOINT RightWrist
                        {
                            OFFSET -28.869000  -0.000045  -0.000080
                            CHANNELS 3 Zrotation Xrotation Yrotation
                            JOINT RightFinger0
                            {
                                OFFSET  -2.044660  -2.323490   3.252850
                                CHANNELS 3 Zrotation Xrotation Yrotation
                                JOINT RightFinger01
                                {
                                    OFFSET  -3.088140   0.000000   0.000000
                                    CHANNELS 3 Zrotation Xrotation Yrotation
                                    JOINT RightFinger02
                                    {
                                        OFFSET  -2.639450   0.000000   0.000000
                                        CHANNELS 3 Zrotation Xrotation Yrotation
                                        End Site
                                        {
                                            OFFSET  -2.582190   0.000000   0.000000
                                        }
                                    }
                                }
                            }
                            JOINT RightFinger1
                            {
                                OFFSET  -8.364480   0.000000   3.252850
                                CHANNELS 3 Zrotation Xrotation Yrotation
                                JOINT RightFinger11
                                {
                                    OFFSET  -4.646920   0.000000   0.000000
                                    CHANNELS 3 Zrotation Xrotation Yrotation
                                    JOINT RightFinger12
                                    {
                                        OFFSET  -2.323470   0.000000   0.000000
                                        CHANNELS 3 Zrotation Xrotation Yrotation
                                        End Site
                                        {
                                            OFFSET  -2.273050   0.000000   0.000000
                                        }
                                    }
                                }
                            }
                            JOINT RightFinger2
                            {
                                OFFSET  -8.364480   0.000000   1.078090
                                CHANNELS 3 Zrotation Xrotation Yrotation
                                JOINT RightFinger21
                                {
                                    OFFSET  -5.111610   0.000000   0.000000
                                    CHANNELS 3 Zrotation Xrotation Yrotation
                                    JOINT RightFinger22
                                    {
                                        OFFSET  -2.788160   0.000000   0.000000
                                        CHANNELS 3 Zrotation Xrotation Yrotation
                                        End Site
                                        {
                                            OFFSET  -2.727660   0.000000   0.000000
                                        }
                                    }
                                }
                            }
                            JOINT RightFinger3
                            {
                                OFFSET  -7.899780   0.000000  -1.078090
                                CHANNELS 3 Zrotation Xrotation Yrotation
                                JOINT RightFinger31
                                {
                                    OFFSET  -4.646930   0.000000   0.000000
                                    CHANNELS 3 Zrotation Xrotation Yrotation
                                    JOINT RightFinger32
                                    {
                                        OFFSET  -2.323470   0.000000   0.000000
                                        CHANNELS 3 Zrotation Xrotation Yrotation
                                        End Site
                                        {
                                            OFFSET  -2.273050   0.000000   0.000000
                                        }
                                    }
                                }
                            }
                            JOINT RightFinger4
                            {
                                OFFSET  -7.435090   0.000000  -3.252850
                                CHANNELS 3 Zrotation Xrotation Yrotation
                                JOINT RightFinger41
                                {
                                    OFFSET  -3.717550   0.000000   0.000000
                                    CHANNELS 3 Zrotation Xrotation Yrotation
                                    JOINT RightFinger42
                                    {
                                        OFFSET  -1.858760   0.000000   0.000000
                                        CHANNELS 3 Zrotation Xrotation Yrotation
                                        End Site
                                        {
                                            OFFSET  -1.818440   0.000000   0.000000
                                        }
                                    }
                                }
                            }
                        }
                    }
                }
            }
        }
    }
    JOINT LeftHip
    {
        OFFSET   9.782990   0.000000   0.000000
        CHANNELS 3 Zrotation Xrotation Yrotation
        JOINT LeftKnee
        {
            OFFSET  -0.000063 -41.789100   0.001657
            CHANNELS 3 Zrotation Xrotation Yrotation
            JOINT LeftAnkle
            {
                OFFSET   0.000078 -41.133200  -0.000113
                CHANNELS 3 Zrotation Xrotation Yrotation
                JOINT LeftToe
                {
                    OFFSET   0.000000  -6.358970  14.674500
                    CHANNELS 3 Zrotation Xrotation Yrotation
                    End Site
                    {
                        OFFSET   0.000000   0.000000   3.913200
                    }
                }
            }
        }
    }
    JOINT RightHip
    {
        OFFSET  -9.782990   0.000000   0.000000
        CHANNELS 3 Zrotation Xrotation Yrotation
        JOINT RightKnee
        {
            OFFSET   0.000053 -41.789200   0.000277
            CHANNELS 3 Zrotation Xrotation Yrotation
            JOINT RightAnkle
            {
                OFFSET   0.000030 -41.133200  -0.000150
                CHANNELS 3 Zrotation Xrotation Yrotation
                JOINT RightToe
                {
                    OFFSET   0.000000  -6.358960  14.674500
                    CHANNELS 3 Zrotation Xrotation Yrotation
                    End Site
                    {
                        OFFSET   0.000000   0.000000   3.913200
                    }
                }
            }
        }
    }
}
MOTION
Frames: 4
Frame Time:   0.016667
 -0.673836  89.582500   0.112426  -2.003750 -12.423300   4.144280   0.975527   7.099580   2.289890   1.681270  14.231900   4.509830  -6.738150   4.529180   0.534669 -11.256000   8.803190  13.235600   0.084070   1.170080  -4.111630 -46.726600  -0.955068 -72.941800   9.553070 -29.745100 -104.653000  51.370400 -39.648200  25.277900  38.012500  33.609500 -65.441400 -33.334600   0.001125   0.006903 -11.667300   0.003109  -0.003677 -66.954700   2.081250  -0.885827 -54.794100  -0.004109  -0.004378 -41.095600  -0.000360  -0.000826 -59.698600  -2.636540   1.539920 -59.734100   0.002938  -0.001278 -44.800600   0.001896  -0.005651 -58.892700  -6.104500   3.672340 -59.088500  -0.000307  -0.001318 -44.316300   0.002780  -0.000281 -56.350600  -7.178860   4.754990 -84.973600   0.001671  -0.000818 -56.592400   0.007127  -0.004577   4.809170   0.129017   3.568840  72.642000  12.543800  -1.436790  -0.085137  -7.767460  14.066600 -15.260500  -1.259630   2.183460 -34.929800  30.387200  65.628300  34.584500   0.001036  -0.000590  12.292200   0.000967  -0.000776  37.204000  10.071000  12.972100  31.379100   0.003840   0.002702  21.965400   0.002687   0.002208  33.504800   4.842090   7.270140  50.718600   0.004193   0.009123  33.778600   0.002801   0.006560  32.286800   3.470300   5.473180  48.679000  -0.000304  -0.001160  32.420200  -0.000199  -0.001379  46.419600  -3.173030  -3.015240  69.754600  -0.001810   0.005887  46.456500  -0.001133   0.003880   4.837370  13.455800   3.310910   1.164820   0.030044   4.863400  -3.280340  -2.028520  -1.703220  -0.000000   0.000000  -0.000000   3.327930  14.094200  -1.206950   0.365015   1.766780  -9.151760  -0.746494  -4.766780  -4.792140  -0.000000   0.000000  -0.000000
 -0.649700  89.579500   0.099955  -2.005780 -12.358300   4.156110   0.958085   7.089060   2.296390   1.645780  14.210300   4.524790  -6.726670   4.453320   0.524737 -11.228600   8.657380  13.187600   0.070586   1.085550  -4.145750 -46.552400  -0.770454 -72.989500   9.820220 -30.133300 -104.639000  51.545100 -39.586000  25.454100  37.795800  33.462300 -65.574300 -33.527600   0.001057   0.006957 -11.763800   0.003350  -0.003674 -66.893600   2.078250  -0.886067 -54.744400  -0.004481  -0.004759 -41.058300  -0.000255  -0.000942 -59.625800  -2.647050   1.550520 -59.661700   0.002853  -0.001254 -44.746300   0.001896  -0.005716 -58.878900  -6.105500   3.674730 -59.074900  -0.000330  -0.001060 -44.306100   0.002654  -0.000380 -56.454200  -7.224530   4.766230 -85.132800   0.002126  -0.000860 -56.698500   0.007382  -0.004938   4.837590   0.127047   3.608240  72.579500  12.689500  -1.324060  -0.110267  -7.785340  14.114900 -15.239100  -1.258040   2.181240 -34.943000  30.366000  65.579700  34.563200   0.001150  -0.000700  12.281600   0.001048  -0.000851  37.194500  10.070200  12.974600  31.371200   0.003741   0.002731  21.959900   0.002618   0.002224  33.515300   4.841370   7.266410  50.734100   0.004089   0.009176  33.788900   0.002728   0.006592  32.306200   3.468390   5.465280  48.707700  -0.000335  -0.001144  32.439300  -0.000222  -0.001368  46.430800  -3.177210  -3.017950  69.771800  -0.001846   0.005868  46.468000  -0.001159   0.003873   4.833050  13.356300   3.306330   1.151640   0.076221   4.851460  -3.275690  -2.037730  -1.694900   0.000000   0.000000  -0.000000   3.304470  14.024300  -1.221090   0.368661   1.748120  -9.134330  -0.736346  -4.737750  -4.794210   0.000000   0.000000   0.000000
 -0.625322  89.574100   0.089192  -2.007870 -12.311000   4.162400   0.951019   7.082830   2.295760   1.631900  14.197600   4.523490  -6.726720   4.393590   0.517586 -11.221600   8.541520  13.149400   0.065510   1.011270  -4.143270 -46.396700  -0.613287 -73.033800   9.959170 -30.500200 -104.593000  51.504200 -39.666400  25.479100  37.625400  33.317700 -65.702800 -33.711300   0.000992   0.007006 -11.855700   0.003575  -0.003673 -66.753600   2.000470  -0.861510 -54.629100  -0.004854  -0.005140 -40.971900  -0.000125  -0.001060 -59.503900  -2.664720   1.568290 -59.540500   0.002759  -0.001231 -44.655400   0.001897  -0.005782 -58.864400  -6.106400   3.677230 -59.060600  -0.000353  -0.000797 -44.295400   0.002538  -0.000492 -56.621900  -7.298520   4.784280 -85.390800   0.002579  -0.000899 -56.870400   0.007646  -0.005293   4.861320   0.127741   3.653140  72.519000  12.790200  -1.234110  -0.158137  -7.780600  14.179900 -15.241400  -1.286070   2.189960 -34.942500  30.330800  65.532100  34.549700   0.001253  -0.000772  12.274900   0.001127  -0.000916  37.199900  10.071600  12.974400  31.375200   0.003640   0.002758  21.962700   0.002547   0.002247  33.542900   4.840850   7.256550  50.774800   0.003975   0.009234  33.816100   0.002654   0.006620  32.344100   3.463690   5.449900  48.763500  -0.000369  -0.001126  32.476500  -0.000245  -0.001352  46.470100  -3.191440  -3.027230  69.831700  -0.001883   0.005850  46.507900  -0.001183   0.003866   4.834170  13.267500   3.302180   1.136080   0.115777   4.845630  -3.266350  -2.045170  -1.689510  -0.000000   0.000000   0.000000   3.288230  13.963400  -1.197670   0.371106   1.745420  -9.157340  -0.726966  -4.717750  -4.795520   0.000000   0.000000   0.000000
 -0.599554  89.567800   0.079338  -2.010700 -12.274800   4.163790   0.950499   7.078790   2.291530   1.631430  14.189400   4.515980  -6.730340   4.344530   0.512197 -11.226100   8.445660  13.117300   0.062094   0.963159  -4.126590 -46.314900  -0.471915 -73.055800  10.074400 -30.815800 -104.549000  51.362300 -39.801600  25.485800  37.385300  33.236000 -65.774400 -33.813900   0.000923   0.007058 -11.907000   0.003790  -0.003672 -66.485200   1.925260  -0.836958 -54.408500  -0.005227  -0.005512 -40.806400   0.000000  -0.001184 -59.312400  -2.692350   1.596690 -59.350000   0.002662  -0.001211 -44.512500   0.001898  -0.005847 -58.812600  -6.109780   3.686220 -59.009500  -0.000378  -0.000530 -44.257100   0.002434  -0.000619 -56.732000  -7.347110   4.796110 -85.560200   0.003036  -0.000944 -56.983200   0.007915  -0.005644   4.876360   0.132632   3.695080  72.455400  12.862200  -1.157260  -0.213264  -7.769320  14.258700 -15.242500  -1.339340   2.205090 -34.938100  30.295200  65.484100  34.543100   0.001356  -0.000843  12.271600   0.001204  -0.000982  37.208000  10.073100  12.972400  31.382300   0.003536   0.002786  21.967600   0.002474   0.002271  33.576600   4.840460   7.244480  50.824700   0.003858   0.009289  33.849300   0.002580   0.006650  32.388500   3.458050   5.431890  48.828800  -0.000405  -0.001108  32.520000  -0.000268  -0.001333  46.520300  -3.209530  -3.039030  69.908300  -0.001921   0.005828  46.558900  -0.001207   0.003859   4.834990  13.218000   3.297420   1.119420   0.138187   4.844290  -3.253390  -2.049270  -1.683620   0.000000   0.000000   0.000000   3.276500  13.909900  -1.170690   0.372056   1.744930  -9.180360  -0.717308  -4.702600  -4.797800  -0.000000   0.000000   0.000000
